<?xml version="1.0" standalone="no"?>
<!DOCTYPE svg PUBLIC "-//W3C//DTD SVG 20010904//EN"
 "http://www.w3.org/TR/2001/REC-SVG-20010904/DTD/svg10.dtd">
<svg version="1.0" xmlns="http://www.w3.org/2000/svg"
 width="500.000000pt" height="500.000000pt" viewBox="0 0 500.000000 500.000000"
 preserveAspectRatio="xMidYMid meet">

<g transform="translate(0.000000,500.000000) scale(0.100000,-0.100000)"
fill="#000000" stroke="none">
<path d="M1817 3643 c-4 -6 -241 -591 -264 -651 -4 -10 11 -12 68 -10 73 3 73
3 83 36 l9 32 109 0 109 0 15 -35 14 -35 71 0 c63 0 70 2 65 17 -43 111 -261
640 -266 646 -4 5 -10 5 -13 0z m37 -387 c14 -37 26 -72 26 -77 0 -5 -25 -9
-55 -9 -30 0 -55 4 -55 8 0 7 27 91 45 141 7 19 10 15 39 -63z"/>
<path d="M910 3310 l0 -330 65 0 65 0 0 177 0 178 83 -83 83 -83 82 88 81 88
1 -182 0 -183 65 0 65 0 -2 327 c-3 292 -5 328 -19 331 -10 2 -60 -46 -135
-129 -65 -73 -124 -139 -129 -146 -8 -11 -27 5 -89 74 -129 144 -187 203 -202
203 -12 0 -14 -53 -14 -330z"/>
<path d="M3717 3630 c-109 -19 -209 -102 -244 -203 -23 -68 -23 -176 1 -245
24 -70 100 -152 168 -183 75 -33 210 -33 286 1 68 30 144 112 168 182 24 70
24 177 0 248 -26 74 -111 160 -181 183 -66 21 -139 27 -198 17z m163 -149 c19
-10 49 -37 65 -60 27 -38 30 -51 30 -116 0 -65 -3 -78 -30 -116 -40 -57 -95
-84 -166 -83 -99 1 -173 69 -185 169 -20 170 134 281 286 206z"/>
<path d="M3060 3305 l0 -325 165 0 165 0 0 65 0 65 -100 0 -100 0 0 65 0 65
85 0 c95 0 91 -5 79 84 l-7 46 -78 0 -79 0 0 65 0 65 95 0 95 0 0 65 0 65
-160 0 -160 0 0 -325z"/>
<path d="M2100 3560 l0 -60 80 0 80 0 0 -260 0 -260 65 0 65 0 0 260 0 260
160 0 160 0 0 -260 0 -260 65 0 65 0 0 260 0 260 80 0 80 0 0 60 0 60 -450 0
-450 0 0 -60z"/>
<path d="M1102 2593 c-16 -43 -78 -194 -135 -335 l-105 -258 72 0 72 0 13 35
12 35 109 0 108 0 12 -35 12 -35 73 0 73 0 -93 228 c-51 125 -112 275 -136
334 -24 59 -47 108 -50 108 -3 0 -20 -35 -37 -77z m65 -305 c12 -35 25 -71 28
-80 6 -16 0 -18 -55 -18 -45 0 -61 3 -58 13 3 6 16 42 29 80 13 37 26 67 29
67 3 0 15 -28 27 -62z"/>
<path d="M3262 2593 c-16 -43 -78 -194 -135 -335 l-105 -258 72 0 72 0 13 35
12 35 109 0 108 0 12 -35 12 -35 73 0 73 0 -93 228 c-51 125 -112 275 -136
334 -24 59 -47 108 -50 108 -3 0 -20 -35 -37 -77z m65 -305 c12 -35 25 -71 28
-80 6 -16 0 -18 -55 -18 -45 0 -61 3 -58 13 3 6 16 42 29 80 13 37 26 67 29
67 3 0 15 -28 27 -62z"/>
<path d="M220 2330 l0 -330 65 0 65 0 1 183 0 182 82 -88 81 -87 83 82 83 83
0 -178 0 -177 65 0 65 0 0 330 c0 308 -1 330 -17 330 -10 0 -73 -62 -142 -140
-68 -77 -127 -140 -132 -140 -4 0 -65 63 -135 140 -77 85 -134 140 -145 140
-18 0 -19 -14 -19 -330z"/>
<path d="M1920 2325 l0 -325 165 0 165 0 0 65 0 65 -100 0 -100 0 0 65 0 65
85 0 85 0 0 65 0 65 -85 0 -85 0 0 65 0 65 95 0 95 0 0 65 0 65 -160 0 -160 0
0 -325z"/>
<path d="M2338 2644 c-5 -4 -8 -151 -8 -326 l0 -318 65 0 65 0 0 125 0 125 33
0 c33 0 35 -3 98 -125 l64 -125 73 0 73 0 -38 68 c-20 37 -54 96 -74 131 l-37
65 42 26 c56 36 81 87 81 167 0 52 -5 68 -30 105 -48 69 -86 81 -255 86 -80 2
-148 1 -152 -4z m280 -144 c29 -27 29 -83 2 -110 -16 -16 -33 -20 -90 -20
l-70 0 0 75 0 75 68 0 c55 0 73 -4 90 -20z"/>
<path d="M2850 2325 l0 -325 60 0 60 0 0 325 0 325 -60 0 -60 0 0 -325z"/>
<path d="M3630 2325 l0 -325 165 0 165 0 0 65 0 65 -100 0 -100 0 0 214 c0
117 -3 234 -6 260 l-7 46 -58 0 -59 0 0 -325z"/>
<path d="M4037 2643 c-4 -3 -7 -150 -7 -325 l0 -318 170 0 170 0 0 65 0 65
-105 0 -105 0 0 65 0 65 85 0 85 0 0 65 0 65 -85 0 -85 0 0 65 0 65 100 0
c112 0 106 -6 94 84 l-7 46 -152 0 c-83 0 -155 -3 -158 -7z"/>
<path d="M4535 2631 c-69 -31 -105 -93 -105 -178 0 -81 49 -138 160 -184 66
-27 80 -37 90 -64 11 -30 -9 -63 -47 -76 -40 -13 -89 -6 -152 22 -24 11 -45
18 -47 16 -2 -1 -4 -31 -6 -66 l-3 -64 55 -19 c74 -26 175 -26 226 0 73 37
104 88 104 169 0 87 -44 139 -158 189 -75 34 -92 50 -92 90 0 59 52 77 143 50
43 -13 46 -13 51 8 3 11 6 40 6 62 0 41 -1 42 -44 53 -65 16 -135 13 -181 -8z"/>
<path d="M1410 2580 l0 -60 80 0 80 0 0 -260 0 -260 65 0 65 0 0 260 0 260 80
0 80 0 0 60 0 60 -225 0 -225 0 0 -60z"/>
<path d="M1913 1550 c-85 -52 -46 -190 55 -190 43 0 72 16 72 40 0 17 -2 18
-27 4 -37 -18 -45 -18 -77 7 -34 27 -36 81 -4 103 26 19 69 21 86 4 9 -9 13
-7 18 7 17 42 -67 60 -123 25z"/>
<path d="M2710 1465 c0 -98 1 -105 20 -105 19 0 20 7 20 105 0 98 -1 105 -20
105 -19 0 -20 -7 -20 -105z"/>
<path d="M2099 1491 c-29 -23 -31 -81 -4 -111 28 -31 97 -28 124 6 28 35 26
69 -4 99 -30 31 -83 33 -116 6z m87 -32 c19 -22 13 -43 -18 -63 -34 -21 -66
42 -36 72 17 17 32 15 54 -9z"/>
<path d="M2270 1435 c0 -68 2 -75 20 -75 17 0 20 7 20 43 0 49 25 82 54 71 12
-4 16 -1 16 15 0 24 -37 30 -58 9 -9 -9 -12 -9 -12 0 0 7 -9 12 -20 12 -18 0
-20 -7 -20 -75z"/>
<path d="M2410 1435 c0 -68 2 -75 20 -75 17 0 20 7 20 49 0 52 15 74 47 69 11
-2 18 3 18 12 0 19 -45 26 -56 8 -7 -10 -9 -10 -9 0 0 6 -9 12 -20 12 -18 0
-20 -7 -20 -75z"/>
<path d="M2552 1498 c-19 -19 -15 -41 6 -33 33 15 66 11 70 -9 3 -12 0 -16 -7
-11 -23 13 -71 -6 -77 -31 -10 -39 11 -53 72 -52 l54 2 0 61 c0 34 -5 66 -12
73 -7 7 -30 12 -53 12 -23 0 -46 -5 -53 -12z m76 -90 c-7 -20 -48 -23 -48 -4
0 11 9 16 26 16 16 0 24 -5 22 -12z"/>
<path d="M2810 1490 c-12 -12 -20 -33 -20 -55 0 -47 29 -75 78 -75 73 0 110
81 59 128 -30 29 -89 30 -117 2z m84 -26 c9 -8 16 -22 16 -29 0 -17 -27 -45
-44 -45 -35 0 -49 61 -18 79 23 14 28 14 46 -5z"/>
<path d="M2985 1502 c-3 -3 -5 -36 -5 -74 0 -66 1 -68 25 -68 24 0 25 3 25 54
0 39 4 55 15 60 33 12 45 -4 45 -60 0 -47 2 -54 20 -54 18 0 20 7 20 56 0 84
-9 94 -80 92 -33 -1 -62 -4 -65 -6z"/>
</g>
</svg>
