<?xml version="1.0" standalone="no"?>
<!DOCTYPE svg PUBLIC "-//W3C//DTD SVG 20010904//EN"
 "http://www.w3.org/TR/2001/REC-SVG-20010904/DTD/svg10.dtd">
<svg version="1.0" xmlns="http://www.w3.org/2000/svg"
 width="200.000000pt" height="200.000000pt" viewBox="0 0 200.000000 200.000000"
 preserveAspectRatio="xMidYMid meet">
<metadata>
Created by potrace 1.16, written by Peter Selinger 2001-2019
</metadata>
<g transform="translate(0.000000,200.000000) scale(0.100000,-0.100000)"
fill="#000000" stroke="none">
<path d="M944 1915 c-9 -14 -20 -48 -24 -77 -5 -38 -8 -44 -9 -21 -1 26 -6 34
-27 39 -15 4 -39 3 -53 -2 -22 -8 -26 -15 -26 -49 0 -36 3 -40 26 -43 30 -4
46 22 28 44 -8 10 -8 14 -1 14 16 0 32 -34 32 -69 0 -37 30 -45 31 -8 l0 22 9
-22 c5 -13 16 -23 25 -23 12 0 15 16 16 88 1 71 3 81 10 57 6 -16 8 -55 5 -85
l-5 -56 29 -2 c29 -2 30 0 30 37 0 37 22 72 37 57 3 -3 1 -6 -5 -6 -7 0 -12
-11 -12 -25 0 -19 5 -25 23 -25 29 0 47 18 47 45 0 45 -64 71 -103 43 -9 -8
-18 -32 -20 -58 -3 -38 -4 -35 -5 18 -2 56 -22 132 -36 132 -3 0 -13 -11 -22
-25z"/>
<path d="M512 1761 c-7 -4 -10 -15 -6 -24 3 -10 1 -17 -5 -17 -9 0 -9 -5 -1
-20 7 -13 7 -20 1 -20 -6 0 -4 -17 4 -41 8 -23 12 -45 9 -50 -3 -5 -2 -15 2
-21 8 -12 11 -27 17 -79 2 -14 7 -31 11 -37 4 -7 10 -24 12 -39 3 -15 10 -33
16 -41 9 -10 4 -20 -20 -45 -48 -50 -98 -141 -118 -215 -9 -37 -23 -74 -31
-83 -16 -19 -17 -31 -1 -47 6 -6 20 -51 30 -99 47 -236 197 -385 431 -428 61
-12 42 10 -20 23 -73 15 -175 63 -229 108 -23 19 -61 61 -83 95 -41 61 -91
197 -91 247 0 15 -7 39 -14 54 -8 15 -11 30 -6 33 4 3 14 29 20 57 7 29 24 78
37 108 28 65 100 163 113 155 6 -3 -1 -16 -15 -28 -39 -35 -91 -132 -111 -205
-9 -37 -23 -74 -31 -83 -11 -14 -11 -18 1 -28 8 -7 17 -35 21 -64 11 -77 47
-175 88 -239 62 -98 194 -183 315 -203 l42 -7 0 35 c0 34 -2 35 -45 42 -25 3
-43 10 -41 13 3 4 -3 8 -12 9 -37 2 -67 14 -101 38 -58 41 -71 52 -71 59 0 3
-15 30 -34 59 -19 28 -37 63 -41 77 -3 14 4 5 17 -20 13 -25 31 -56 41 -70 16
-23 17 -23 14 -4 -1 12 -10 33 -19 46 -39 59 -60 149 -56 238 3 75 8 95 43
167 32 66 41 79 47 63 4 -11 12 -20 18 -20 6 0 8 -5 5 -11 -4 -6 2 -13 14 -16
12 -3 21 -9 21 -14 0 -5 10 -9 23 -9 18 0 19 -2 7 -10 -13 -8 -13 -10 2 -10
11 0 15 -5 12 -15 -4 -9 0 -15 10 -15 9 0 16 -4 16 -10 0 -5 7 -10 15 -10 8 0
24 -9 35 -20 20 -20 20 -20 1 -20 -22 0 -41 -22 -23 -28 7 -2 3 -16 -10 -38
-11 -19 -18 -38 -14 -41 3 -4 79 -57 168 -119 173 -119 182 -122 207 -67 15
32 14 43 -4 43 -18 0 -66 29 -77 46 -4 6 -50 37 -103 69 -52 32 -95 60 -95 62
0 9 259 -133 294 -161 20 -15 33 -33 29 -39 -3 -6 -1 -7 6 -3 12 8 136 -62
127 -72 -3 -2 -12 0 -19 6 -10 9 -21 4 -48 -24 -44 -47 -100 -78 -174 -100
-53 -15 -57 -18 -35 -25 24 -7 24 -7 3 -8 -19 -1 -23 -7 -23 -35 0 -28 4 -35
23 -39 l22 -4 -22 -2 c-13 0 -23 -5 -23 -11 0 -21 140 18 216 61 58 33 144
109 144 128 0 7 -27 -12 -60 -42 -58 -52 -171 -118 -201 -116 -8 0 8 9 36 20
62 25 166 99 189 134 17 25 17 27 -1 42 -16 14 -16 14 7 1 14 -8 73 -45 131
-81 59 -37 109 -67 113 -67 3 0 6 8 6 18 -1 11 -69 59 -212 148 -240 148 -239
146 -227 274 3 36 6 60 7 53 3 -18 32 -4 32 15 0 8 3 12 7 9 10 -11 33 13 33
34 0 11 5 19 10 19 7 0 7 7 -1 21 -8 17 -8 20 1 14 9 -6 11 6 7 49 -5 52 -4
55 14 46 27 -15 69 -92 69 -128 0 -18 4 -32 9 -32 13 0 134 51 145 62 6 5 -2
21 -21 40 -17 18 -39 49 -48 68 -10 19 -29 50 -43 69 -24 32 -24 35 -8 47 16
11 16 13 -6 17 -15 3 -10 5 15 6 26 1 40 6 44 19 4 9 15 23 25 30 30 22 20 34
-13 17 -17 -9 -33 -15 -35 -12 -2 2 19 14 46 27 28 13 49 29 46 35 -2 6 5 17
15 23 10 7 19 18 19 26 0 7 6 19 13 25 10 7 14 38 15 101 0 49 -1 90 -2 90 -2
0 -20 -27 -40 -60 -47 -75 -114 -144 -191 -197 -83 -56 -146 -87 -139 -69 6
15 -67 47 -133 59 l-33 7 0 -45 c0 -37 3 -44 23 -48 l22 -4 -23 -2 c-27 -1
-20 -21 7 -21 10 0 35 -7 54 -15 l36 -15 -16 -31 c-12 -23 -14 -47 -9 -91 3
-33 3 -58 -2 -56 -4 3 -31 15 -59 28 l-53 24 0 218 c0 187 2 218 15 218 8 0
15 9 15 20 0 18 -7 20 -75 20 -68 0 -75 -2 -75 -20 0 -11 5 -20 10 -20 6 0 10
-83 10 -230 0 -143 -4 -230 -10 -230 -5 0 -17 11 -26 26 -9 14 -42 43 -71 64
l-55 39 34 21 c18 11 49 23 68 26 46 9 55 15 39 25 -10 6 -11 9 -1 9 7 0 12
13 12 29 0 25 -5 30 -27 34 l-28 4 28 2 c15 0 27 6 27 11 0 13 -5 13 -75 -5
-33 -9 -83 -29 -111 -44 l-52 -28 -36 77 c-20 42 -51 120 -69 173 -23 71 -35
94 -45 88z m488 -311 c0 -135 -4 -220 -10 -220 -5 0 -7 6 -5 13 7 19 -11 41
-29 34 -19 -7 -21 -43 -3 -50 6 -3 2 -6 -10 -6 l-23 -1 0 225 0 225 40 0 40 0
0 -220z"/>
<path d="M1356 923 c13 -28 8 -87 -10 -122 -19 -35 -13 -46 33 -71 29 -15 41
-3 67 69 10 25 21 50 26 56 11 13 -15 -63 -36 -103 -9 -17 -16 -37 -16 -44 1
-22 29 23 51 81 11 31 30 66 41 78 12 13 20 25 17 27 -7 7 -146 46 -164 46
-13 0 -15 -4 -9 -17z"/>
<path d="M640 858 c0 -9 -3 -24 -6 -32 -4 -11 21 -44 82 -107 106 -108 138
-132 162 -124 23 7 48 55 30 55 -6 0 -32 17 -57 38 -25 21 -70 55 -98 76 -29
21 -66 54 -83 74 -20 24 -30 31 -30 20z"/>
<path d="M979 275 c-3 -3 -2 -24 4 -48 7 -31 6 -54 -4 -87 l-14 -45 -3 88 c-2
66 -6 87 -17 87 -7 0 -16 -6 -18 -12 -4 -10 -6 -10 -6 0 -2 25 -31 12 -31 -14
0 -31 -17 -64 -33 -64 -8 0 -8 3 2 9 8 5 11 16 6 30 -5 17 -13 21 -33 19 -24
-3 -27 -7 -27 -43 0 -34 4 -41 26 -49 44 -15 77 -1 82 37 3 28 4 27 5 -10 2
-41 29 -113 43 -113 16 0 39 73 41 132 1 53 2 56 5 18 3 -24 9 -50 15 -57 16
-19 72 -16 91 5 32 36 15 82 -30 82 -18 0 -23 -6 -23 -25 0 -14 5 -25 12 -25
6 0 8 -3 5 -6 -14 -14 -37 20 -37 53 0 32 -2 35 -25 31 -13 -3 -26 -1 -27 4
-2 5 -6 7 -9 3z"/>
</g>
</svg>
